<?xml version="1.0" encoding="utf-8"?>
<!-- Generator: Adobe Illustrator 16.0.0, SVG Export Plug-In . SVG Version: 6.00 Build 0)  -->
<!DOCTYPE svg PUBLIC "-//W3C//DTD SVG 1.1//EN" "http://www.w3.org/Graphics/SVG/1.1/DTD/svg11.dtd">
<svg version="1.1" id="Layer_1" xmlns="http://www.w3.org/2000/svg" xmlns:xlink="http://www.w3.org/1999/xlink" x="0px" y="0px"
	 width="595.281px" height="372.051px" viewBox="-31 240.92 595.281 372.051" enable-background="new -31 240.92 595.281 372.051"
	 xml:space="preserve">
<linearGradient id="SVGID_1_" gradientUnits="userSpaceOnUse" x1="573.3662" y1="441.426" x2="573.3662" y2="485.8101" gradientTransform="matrix(8.2678 0 0 8.2678 -4473.832 -3407.4739)">
	<stop  offset="0" style="stop-color:#FFFFFF"/>
	<stop  offset="1" style="stop-color:#CCCCCC"/>
</linearGradient>
<path fill="url(#SVGID_1_)" d="M564.281,575.766c0,20.463-16.742,37.205-37.205,37.205H6.205c-20.463,0-37.205-16.742-37.205-37.205
	V278.125c0-20.463,16.742-37.205,37.205-37.205h520.871c20.463,0,37.205,16.742,37.205,37.205V575.766z"/>
<path id="XMLID_34_" d="M98.535,350.4c-6.316,7.476-16.421,13.369-26.527,12.527c-1.263-10.105,3.685-20.842,9.474-27.475
	c6.316-7.686,17.368-13.158,26.316-13.579C108.851,332.4,104.746,342.716,98.535,350.4 M107.693,364.927
	c-14.632-0.842-27.159,8.316-34.106,8.316c-7.052,0-17.684-7.896-29.264-7.687c-15.053,0.211-29.053,8.737-36.737,22.316
	c-15.79,27.159-4.105,67.368,11.158,89.476c7.474,10.948,16.421,22.948,28.211,22.527c11.158-0.422,15.58-7.266,29.053-7.266
	c13.579,0,17.474,7.266,29.264,7.054c12.211-0.21,19.895-10.946,27.369-21.896c8.526-12.421,12-24.526,12.21-25.157
	c-0.21-0.211-23.579-9.158-23.79-36.104c-0.21-22.526,18.421-33.264,19.263-33.896C129.798,367.031,113.377,365.347,107.693,364.927
	 M192.221,334.4v164.108h25.474v-56.105h35.264c32.212,0,54.843-22.104,54.843-54.105c0-32-22.21-53.896-54-53.896L192.221,334.4
	L192.221,334.4z M217.695,355.873h29.369c22.106,0,34.738,11.791,34.738,32.526c0,20.737-12.632,32.634-34.843,32.634h-29.264
	V355.873z M354.33,499.771c16,0,30.842-8.105,37.579-20.947h0.524v19.686h23.579v-81.687c0-23.685-18.945-38.946-48.104-38.946
	c-27.055,0-47.055,15.474-47.791,36.736h22.947c1.896-10.104,11.265-16.735,24.104-16.735c15.579,0,24.316,7.263,24.316,20.632
	v9.053l-31.789,1.895c-29.581,1.789-45.581,13.896-45.581,34.948C314.118,485.664,330.645,499.771,354.33,499.771z M361.171,480.298
	c-13.579,0-22.21-6.527-22.21-16.527c0-10.316,8.314-16.316,24.21-17.263l28.316-1.79v9.264
	C391.488,469.349,378.435,480.298,361.171,480.298z M447.489,543.14c24.843,0,36.524-9.475,46.735-38.211l44.738-125.476h-25.896
	l-30.001,96.948h-0.525l-30.002-96.948h-26.63l43.158,119.476l-2.315,7.264c-3.896,12.315-10.212,17.053-21.474,17.053
	c-2,0-5.896-0.211-7.478-0.422v19.688C439.279,542.929,445.593,543.14,447.489,543.14z"/>
</svg>
