<svg xmlns="http://www.w3.org/2000/svg" width="1.814in" height="2.245in" viewBox="0 0 130.633 161.666">
  <path d="M453.243,244.964l-.063,0c-1.257.082-5.523.349-7.624.349a69.054,69.054,0,0,1-43.829-15.492l-5.143-4.231-5.141,4.234a68.872,68.872,0,0,1-43.754,15.489c-1.979,0-6.092-.233-7.988-.354l-8.535-.556v121.54l65.317,21.312L461.8,365.947V244.386Zm.115,114.681-58.237,19L338.472,359.9V253.841c37.06,2.287,57.973-18.294,57.973-18.294,25.412,22.36,56.913,17.278,56.913,17.278Z" transform="translate(-331.166 -225.594)" fill="#fff"/>
  <path d="M338.472,253.852V359.91l56.649,18.751,58.237-19V252.836s-31.5,5.082-56.913-17.278C396.445,235.558,375.532,256.139,338.472,253.852Z" transform="translate(-331.166 -225.594)" fill="#be1e2d"/>
  <g>
    <path d="M348.417,329.95h6.523v1.929h-3.887v2.037h3.353v1.916h-3.353v3.1h-2.636Z" transform="translate(-331.166 -225.594)" fill="#fff"/>
    <path d="M363.051,329.95a1.078,1.078,0,0,1,1.2,1.051v6.88a1.077,1.077,0,0,1-1.2,1.051h-5.289a1.078,1.078,0,0,1-1.2-1.051V331a1.078,1.078,0,0,1,1.2-1.051Zm-1.448,2.089a.16.16,0,0,0-.168-.146h-2.088a.153.153,0,0,0-.137.146v4.831a.139.139,0,0,0,.137.119h2.088c.091,0,.168-.053.168-.119Z" transform="translate(-331.166 -225.594)" fill="#fff"/>
    <path d="M372.64,329.95a1.092,1.092,0,0,1,1.158,1.011v4.112a1.11,1.11,0,0,1-1.158,1.011h-.076l1.265,2.848h-2.591l-1.28-2.848H368.83v2.848h-2.652V329.95Zm-1.478,2.062a.152.152,0,0,0-.138-.133H368.83v2.4h2.194a.153.153,0,0,0,.138-.12Z" transform="translate(-331.166 -225.594)" fill="#fff"/>
    <path d="M386.966,338.932h-2.652V336.7h-2.332v2.235h-2.651V331a1.078,1.078,0,0,1,1.2-1.051h5.227a1.078,1.078,0,0,1,1.2,1.051Zm-2.652-4.178v-2.7c0-.159-.152-.265-.365-.265H382.3a.294.294,0,0,0-.321.265v2.7Z" transform="translate(-331.166 -225.594)" fill="#fff"/>
    <path d="M396.464,329.95l-3.063,8.982h-2.56l-2.987-8.982h2.834l1.433,5.709,1.722-5.709Z" transform="translate(-331.166 -225.594)" fill="#fff"/>
    <path d="M404.24,329.95a1.092,1.092,0,0,1,1.158,1.011v4.112a1.11,1.11,0,0,1-1.158,1.011h-.076l1.265,2.848h-2.591l-1.28-2.848H400.43v2.848h-2.652V329.95Zm-1.478,2.062a.152.152,0,0,0-.137-.133H400.43v2.4h2.195a.153.153,0,0,0,.137-.12Z" transform="translate(-331.166 -225.594)" fill="#fff"/>
    <path d="M411.458,329.913a.587.587,0,0,1,.656.571v3.742a.587.587,0,0,1-.656.571h-4a.586.586,0,0,1-.655-.571v-3.742a.586.586,0,0,1,.655-.571Zm-.191.716a.117.117,0,0,0-.116-.1h-3.4a.115.115,0,0,0-.1.1V334.1c0,.05.058.079.1.079h3.4c.058,0,.116-.029.116-.079Zm-1.792,2.222h-.348v.875h-.813v-2.75H410.3a.334.334,0,0,1,.356.312v1.252a.329.329,0,0,1-.356.311h-.017l.39.875h-.8Zm.374-1.245a.037.037,0,0,0-.042-.036h-.68v.731h.68a.042.042,0,0,0,.042-.036Z" transform="translate(-331.166 -225.594)" fill="#fff"/>
    <path d="M424.759,338.932h-2.652V336.7h-2.332v2.235h-2.651V331a1.078,1.078,0,0,1,1.2-1.051h5.227a1.078,1.078,0,0,1,1.2,1.051Zm-2.652-4.178v-2.7c0-.159-.153-.265-.366-.265H420.1a.293.293,0,0,0-.32.265v2.7Z" transform="translate(-331.166 -225.594)" fill="#fff"/>
    <path d="M429.121,334v4.937h-2.438V329.95h2.438l3.079,4.95v-4.95h2.438v8.982h-2.514Z" transform="translate(-331.166 -225.594)" fill="#fff"/>
    <path d="M442.185,329.95a1.983,1.983,0,0,1,2.089,1.823V337.1a1.983,1.983,0,0,1-2.089,1.836h-5.531V329.95Zm-.548,2.582a.672.672,0,0,0-.747-.653h-1.585v5.11h1.585a.671.671,0,0,0,.747-.652Z" transform="translate(-331.166 -225.594)" fill="#fff"/>
    <path d="M350.739,350.293H354.6c.106,0,.167-.053.167-.119v-1.3c0-.066-.061-.12-.167-.12h-2.652a1.077,1.077,0,0,1-1.2-1.051v-3.393a1.077,1.077,0,0,1,1.2-1.051h5.318v1.929h-3.718a.146.146,0,0,0-.152.146v1.318a.144.144,0,0,0,.152.12H356.2a1.078,1.078,0,0,1,1.2,1.051v3.367a1.078,1.078,0,0,1-1.2,1.051h-5.456Z" transform="translate(-331.166 -225.594)" fill="#fff"/>
    <path d="M366.683,352.236h-2.652V350H361.7v2.236h-2.651v-7.931a1.078,1.078,0,0,1,1.2-1.051h5.227a1.078,1.078,0,0,1,1.2,1.051Zm-2.652-4.178v-2.7c0-.159-.152-.266-.365-.266H362.02a.294.294,0,0,0-.321.266v2.7Z" transform="translate(-331.166 -225.594)" fill="#fff"/>
    <path d="M371.045,347.153v5.083h-2.438v-8.982h2.682l2.073,4.191,1.9-4.191h2.8v8.982h-2.5v-5.177l-1.738,3.567H372.8Z" transform="translate(-331.166 -225.594)" fill="#fff"/>
    <path d="M390.543,343.254a1.982,1.982,0,0,1,2.088,1.823V350.4a1.983,1.983,0,0,1-2.088,1.836h-5.532v-8.982ZM390,345.835a.671.671,0,0,0-.747-.652h-1.585v5.11h1.585a.671.671,0,0,0,.747-.652Z" transform="translate(-331.166 -225.594)" fill="#fff"/>
    <path d="M394.555,343.254h6.721v1.929h-4.085v1.571h3.536v1.916h-3.536v1.623h4.085v1.943h-6.721Z" transform="translate(-331.166 -225.594)" fill="#fff"/>
    <path d="M411.14,343.254l-3.064,8.982h-2.56l-2.987-8.982h2.835l1.432,5.708,1.722-5.708Z" transform="translate(-331.166 -225.594)" fill="#fff"/>
    <path d="M415.09,352.236h-2.636v-8.982h2.636Z" transform="translate(-331.166 -225.594)" fill="#fff"/>
    <path d="M424.861,348.883v2.329a1.118,1.118,0,0,1-1.2,1.024h-5.166a1.089,1.089,0,0,1-1.174-1.024v-6.947a1.105,1.105,0,0,1,1.174-1.011h5.166a1.135,1.135,0,0,1,1.2,1.011v2.316h-2.652v-1.252a.154.154,0,0,0-.137-.146h-1.935a.16.16,0,0,0-.168.146v4.831c0,.08.076.133.168.133h1.935a.14.14,0,0,0,.137-.133v-1.277Z" transform="translate(-331.166 -225.594)" fill="#fff"/>
    <path d="M426.8,343.254h6.721v1.929h-4.085v1.571h3.536v1.916h-3.536v1.623h4.085v1.943H426.8Z" transform="translate(-331.166 -225.594)" fill="#fff"/>
    <path d="M435.262,350.293h3.855c.107,0,.168-.053.168-.119v-1.3c0-.066-.061-.12-.168-.12h-2.652a1.077,1.077,0,0,1-1.2-1.051v-3.393a1.077,1.077,0,0,1,1.2-1.051h5.319v1.929h-3.718a.147.147,0,0,0-.153.146v1.318a.145.145,0,0,0,.153.12h2.652a1.078,1.078,0,0,1,1.2,1.051v3.367a1.078,1.078,0,0,1-1.2,1.051h-5.456Z" transform="translate(-331.166 -225.594)" fill="#fff"/>
  </g>
  <g>
    <path d="M385.564,274.965l-.554-6.638h-.019l-2.138,5.3a1.34,1.34,0,0,1-1.242.9,1.419,1.419,0,0,1-1.249-.9l-2.084-5.237h-.022l-.6,6.572H375.62l1.041-9.358a1.243,1.243,0,0,1,1.112-1.108,1.416,1.416,0,0,1,1.469,1.036l2.359,5.68h.019l2.358-5.68a1.446,1.446,0,0,1,1.471-1.036,1.263,1.263,0,0,1,1.11,1.229l1.03,9.237Z" transform="translate(-331.166 -225.594)" fill="#fff"/>
    <polygon points="57.5 41.456 59.394 41.456 59.394 49.371 57.5 49.371 57.5 41.456 57.5 41.456" fill="#fff"/>
    <polygon points="102.357 41.456 104.253 41.456 104.253 49.371 102.357 49.371 102.357 41.456 102.357 41.456" fill="#fff"/>
    <path d="M391.614,269.829c0-2.317.925-2.865,2.475-2.865h2.029c2.451,0,2.771-.156,2.756,2.086l-4.446-.01c-.91,0-1.05.56-1.05,1.542v.854c0,1.146.175,1.584.993,1.584l4.573,0c0,1.334-.021,2.039-1.751,2.039h-3.1c-1.55,0-2.475-.548-2.475-2.866v-2.36Z" transform="translate(-331.166 -225.594)" fill="#fff"/>
    <path d="M407.178,269.9v-.5c0-1.419-.359-2.351-1.686-2.351h-5.508v7.916h1.722V272.91h3.016c.539,0,.707.274.707,1.1v.952h1.725v-1.344c0-1.3-.427-1.619-.937-1.747v-.023c.792-.263.961-.887.961-1.95h0m-1.679.21c0,.566-.169.832-.632.832h-3.161v-1.926h3c.545,0,.79.129.79.831v.263Z" transform="translate(-331.166 -225.594)" fill="#fff"/>
    <path d="M408.219,269.829c0-2.317.925-2.865,2.476-2.865h2.765c1.553,0,2.478.548,2.478,2.865v2.36c0,2.318-.925,2.866-2.478,2.866H410.7c-1.551,0-2.476-.548-2.476-2.866v-2.36h0m1.768,1.607c0,1.146.172,1.584.989,1.584h2.2c.816,0,.986-.438.986-1.584v-.854c0-.982-.17-1.586-1.081-1.586h-2.017c-.91,0-1.082.6-1.082,1.586v.854Z" transform="translate(-331.166 -225.594)" fill="#fff"/>
    <polygon points="94.056 41.456 95.778 41.456 95.778 44.278 99.416 44.278 99.416 41.456 101.139 41.456 101.139 49.371 99.416 49.371 99.416 46.376 95.778 46.376 95.778 49.371 94.056 49.371 94.056 41.456 94.056 41.456" fill="#fff"/>
    <path d="M441.87,267.049h-5.326v7.916h1.721v-1.99h4.06c1.215,0,1.581-1.353,1.581-2.535v-.68c0-1.553-.394-2.711-2.036-2.711h0m.265,3.116c0,.471-.155.843-.557.843h-3.313v-1.991h3.163c.521,0,.707.306.707.843v.305Z" transform="translate(-331.166 -225.594)" fill="#fff"/>
    <path d="M416.873,269.84c0-2.319.923-2.864,2.475-2.864h2.03c2.452,0,2.762-.153,2.747,2.089l-4.437-.009c-.909,0-1.048.555-1.048,1.537v.852c0,1.149.174,1.588.989,1.588l4.574,0c0,1.333-.02,2.04-1.75,2.04h-3.1c-1.552,0-2.475-.55-2.475-2.867V269.84Z" transform="translate(-331.166 -225.594)" fill="#fff"/>
    <path d="M365.874,261.841a11.011,11.011,0,0,0-4.594-1.027c-6.334-.106-11.544,4.483-11.653,10.258a9.6,9.6,0,0,0,.393,2.889l3.271-4.4,2.214,3.328a1.219,1.219,0,0,1,.16,1.453c-.033.049-3.007,3.993-3.007,3.993a12.205,12.205,0,0,0,16.406.423L362.1,268.213s1.1-1.478,1.958-2.647a1.14,1.14,0,0,1,2.08.038c2.042,3.065,5.869,8.891,5.869,8.891v-.032a4.654,4.654,0,0,0,.636-2.378l-6.77-10.244h0m-1.657,12.622s-1.847,2.593-2.039,2.843c-1.131,1.479-1.967-.224-1.967-.224l-5.891-8.9s1.1-1.477,1.957-2.649a1.136,1.136,0,0,1,2.074.036c2.043,3.068,5.866,8.89,5.866,8.89Z" transform="translate(-331.166 -225.594)" fill="#fff"/>
    <path d="M367.682,262.4a.894.894,0,1,1,.9.849.865.865,0,0,1-.9-.849h0m.9.707a.706.706,0,1,0-.719-.707.694.694,0,0,0,.719.707h0m-.189-.215h-.154v-.979h.389c.24,0,.36.088.36.279a.258.258,0,0,1-.263.268l.285.432h-.169l-.271-.424h-.177v.424h0m.186-.549c.132,0,.246-.008.246-.163,0-.114-.112-.143-.222-.143h-.21v.306Z" transform="translate(-331.166 -225.594)" fill="#fff"/>
  </g>
  <path d="M453.553,249.551c-.054,0-5.417.363-8,.363a73.651,73.651,0,0,1-46.743-16.537l-2.227-1.832-2.226,1.834a73.474,73.474,0,0,1-46.671,16.535c-2.655,0-8.23-.36-8.286-.364l-3.651-.237V362.629l60.731,19.816,60.73-19.816V249.3Zm-3.181,40.084H342.593V288.4H450.372ZM342.593,321.469H450.372V322.7H342.593Zm5.1-64.989a80.655,80.655,0,0,0,48.9-16.352,80.839,80.839,0,0,0,48.967,16.352c1.305,0,3.168-.078,4.816-.163V285.3H342.593V256.31C344.329,256.4,346.318,256.48,347.689,256.48Zm48.794,118.341-53.89-17.4V325.942H450.372v31.481Z" transform="translate(-331.166 -225.594)" fill="#3f0022"/>
  <g>
    <path d="M342.78,297.972a3.057,3.057,0,0,1,.272-1.282,3.531,3.531,0,0,1,.732-1.056,3.327,3.327,0,0,1,1.09-.714,3.514,3.514,0,0,1,1.345-.26h13.347l-.925,4.716H348.432v3.383l8.726.845a3.359,3.359,0,0,1,1.237.244,3.731,3.731,0,0,1,1.1.667,3.543,3.543,0,0,1,.79,1.008,2.674,2.674,0,0,1,.308,1.268v6.31a3.07,3.07,0,0,1-.273,1.284,3.49,3.49,0,0,1-.737,1.057,3.369,3.369,0,0,1-1.1.716,3.541,3.541,0,0,1-1.354.26H342.585V311.7h12.357v-3.408l-8.839-.844a6.2,6.2,0,0,1-.651-.1,3.634,3.634,0,0,1-1.13-.422,3.4,3.4,0,0,1-1.063-.974,2.886,2.886,0,0,1-.479-1.753Z" transform="translate(-331.166 -225.594)" fill="#fff"/>
    <path d="M379.3,299.376h-6.578v17.042h-5.652V299.376h-5.893l.891-4.716H379.3Z" transform="translate(-331.166 -225.594)" fill="#fff"/>
    <path d="M399,294.628v21.79H384.67a3.518,3.518,0,0,1-1.351-.26,3.36,3.36,0,0,1-1.094-.716,3.484,3.484,0,0,1-.735-1.057,3.056,3.056,0,0,1-.274-1.284V294.628h5.653V311.7h6.474V294.628Z" transform="translate(-331.166 -225.594)" fill="#fff"/>
    <path d="M416.885,294.66a3.554,3.554,0,0,1,2.445.96,3.323,3.323,0,0,1,.735,1.041,3.071,3.071,0,0,1,.274,1.284v15.123a3.187,3.187,0,0,1-.274,1.3,3.453,3.453,0,0,1-.735,1.073,3.364,3.364,0,0,1-1.095.716,3.517,3.517,0,0,1-1.35.26h-14.36V299.311h-1.473l0-4.651Zm-2.2,4.651h-6.508V311.7h6.508Z" transform="translate(-331.166 -225.594)" fill="#fff"/>
    <path d="M429.244,316.418h-5.652v-21.79h5.652Z" transform="translate(-331.166 -225.594)" fill="#fff"/>
    <path d="M446.886,294.66a3.56,3.56,0,0,1,1.354.26,3.616,3.616,0,0,1,1.113.716,3.379,3.379,0,0,1,.754,1.057,3.075,3.075,0,0,1,.273,1.285V313.1a3.07,3.07,0,0,1-.273,1.284,3.356,3.356,0,0,1-.754,1.057,3.579,3.579,0,0,1-1.113.716,3.541,3.541,0,0,1-1.354.26H436.027a3.559,3.559,0,0,1-2.466-.976,3.325,3.325,0,0,1-.754-1.057,3.041,3.041,0,0,1-.275-1.284V297.978a3.046,3.046,0,0,1,.275-1.285,3.347,3.347,0,0,1,.754-1.057,3.592,3.592,0,0,1,1.113-.716,3.555,3.555,0,0,1,1.353-.26Zm-2.158,4.716h-6.474V311.7h6.474Z" transform="translate(-331.166 -225.594)" fill="#fff"/>
  </g>
  <g>
    <path d="M391.837,365.437a4.793,4.793,0,0,0,4.469,4.84V360.6A4.794,4.794,0,0,0,391.837,365.437Zm2.229-3.247a.888.888,0,1,1-.888.888A.888.888,0,0,1,394.066,362.19Zm0,6.5a.888.888,0,1,1,.888-.888A.889.889,0,0,1,394.066,368.7Zm.965-2.358a.889.889,0,1,1,.888-.888A.889.889,0,0,1,395.031,366.337Z" transform="translate(-331.166 -225.594)" fill="#fff"/>
    <path d="M396.818,360.6v9.68a4.856,4.856,0,0,0,0-9.68Zm2.207,1.593a.888.888,0,1,1-.888.888A.889.889,0,0,1,399.025,362.19Zm-1.853,3.259a.888.888,0,1,1,.888.888A.888.888,0,0,1,397.172,365.449Zm1.853,3.246a.888.888,0,1,1,.888-.888A.888.888,0,0,1,399.025,368.7Z" transform="translate(-331.166 -225.594)" fill="#fff"/>
    <path d="M397.559,358.589l.623-1.081a.549.549,0,0,0,.058,0,.609.609,0,1,0-.451-.2l-.648,1.125a2.312,2.312,0,0,0-1.187,0l-.651-1.13a.608.608,0,1,0-.451.2.549.549,0,0,0,.058,0l.627,1.089a2.317,2.317,0,0,0-1.3,2.081c0,.026,0,.052,0,.077a4.931,4.931,0,0,1,4.629,0c0-.025,0-.051,0-.077A2.316,2.316,0,0,0,397.559,358.589Z" transform="translate(-331.166 -225.594)" fill="#fff"/>
  </g>
  <path d="M419.277,363.486H404.1a.845.845,0,1,1,0-1.69h15.174a.845.845,0,0,1,0,1.69Z" transform="translate(-331.166 -225.594)" fill="#fff"/>
  <path d="M425.441,359.963h-23.1a.845.845,0,1,1,0-1.689h23.1a.845.845,0,0,1,0,1.689Z" transform="translate(-331.166 -225.594)" fill="#fff"/>
  <path d="M389.336,363.486H374.162a.845.845,0,0,1,0-1.69h15.174a.845.845,0,1,1,0,1.69Z" transform="translate(-331.166 -225.594)" fill="#fff"/>
  <path d="M391.1,359.963H368a.845.845,0,0,1,0-1.689h23.1a.845.845,0,1,1,0,1.689Z" transform="translate(-331.166 -225.594)" fill="#fff"/>
</svg>
